<mxfile host="app.diagrams.net" modified="2021-10-07T12:23:58.263Z" agent="5.0 (Windows)" etag="oKvX6reJ1EEc_H2882XO" version="14.7.6" type="github">
  <diagram name="Main system" id="90a13364-a465-7bf4-72fc-28e22215d7a0">
    <mxGraphModel dx="1422" dy="790" grid="1" gridSize="10" guides="1" tooltips="1" connect="1" arrows="1" fold="1" page="1" pageScale="1.5" pageWidth="1169" pageHeight="826" background="none" math="0" shadow="0">
      <root>
        <mxCell id="0" style=";html=1;" />
        <mxCell id="1" style=";html=1;" parent="0" />
        <mxCell id="3a17f1ce550125da-1" value="Software Control" style="whiteSpace=wrap;html=1;shadow=1;fontSize=20;fillColor=#f5f5f5;strokeColor=#666666;strokeWidth=2;dashed=1;" parent="1" vertex="1">
          <mxGeometry x="797" y="344" width="150" height="60" as="geometry" />
        </mxCell>
        <mxCell id="dA12gsGNi2PgmM5HZedz-6" style="edgeStyle=orthogonalEdgeStyle;rounded=0;orthogonalLoop=1;jettySize=auto;html=1;exitX=0.5;exitY=0;exitDx=0;exitDy=0;startArrow=classic;startFill=1;" edge="1" parent="1" source="3a17f1ce550125da-2">
          <mxGeometry relative="1" as="geometry">
            <mxPoint x="871.666666666667" y="430" as="targetPoint" />
          </mxGeometry>
        </mxCell>
        <mxCell id="3a17f1ce550125da-2" value="STM32 (F747 for now)" style="whiteSpace=wrap;html=1;shadow=1;fontSize=18;fillColor=#f5f5f5;strokeColor=#666666;" parent="1" vertex="1">
          <mxGeometry x="787" y="454" width="170" height="280" as="geometry" />
        </mxCell>
        <mxCell id="dA12gsGNi2PgmM5HZedz-8" style="edgeStyle=orthogonalEdgeStyle;rounded=0;orthogonalLoop=1;jettySize=auto;html=1;exitX=0.5;exitY=0;exitDx=0;exitDy=0;fontSize=18;startArrow=classic;startFill=1;" edge="1" parent="1" source="3a17f1ce550125da-4">
          <mxGeometry relative="1" as="geometry">
            <mxPoint x="1060" y="430" as="targetPoint" />
          </mxGeometry>
        </mxCell>
        <mxCell id="3a17f1ce550125da-4" value="etherCAT&lt;br&gt;Chip" style="whiteSpace=wrap;html=1;shadow=1;fontSize=18;fillColor=#f5f5f5;strokeColor=#666666;" parent="1" vertex="1">
          <mxGeometry x="1000" y="460" width="120" height="60" as="geometry" />
        </mxCell>
        <mxCell id="dA12gsGNi2PgmM5HZedz-1" value="A; Digital" style="edgeStyle=orthogonalEdgeStyle;rounded=0;orthogonalLoop=1;jettySize=auto;html=1;exitX=1;exitY=0.25;exitDx=0;exitDy=0;entryX=0;entryY=0.25;entryDx=0;entryDy=0;" edge="1" parent="1" source="3a17f1ce550125da-8" target="3a17f1ce550125da-2">
          <mxGeometry x="-0.8354" relative="1" as="geometry">
            <mxPoint as="offset" />
          </mxGeometry>
        </mxCell>
        <mxCell id="dA12gsGNi2PgmM5HZedz-2" value="B; Digital" style="edgeStyle=orthogonalEdgeStyle;rounded=0;orthogonalLoop=1;jettySize=auto;html=1;exitX=1;exitY=0.75;exitDx=0;exitDy=0;entryX=0;entryY=0.25;entryDx=0;entryDy=0;" edge="1" parent="1" source="3a17f1ce550125da-8" target="3a17f1ce550125da-2">
          <mxGeometry x="-0.8165" relative="1" as="geometry">
            <mxPoint x="580" y="550" as="targetPoint" />
            <mxPoint as="offset" />
          </mxGeometry>
        </mxCell>
        <mxCell id="3a17f1ce550125da-8" value="Relative Position encoder" style="whiteSpace=wrap;html=1;shadow=1;fontSize=18;fillColor=#f5f5f5;strokeColor=#666666;" parent="1" vertex="1">
          <mxGeometry x="400" y="280" width="120" height="100" as="geometry" />
        </mxCell>
        <mxCell id="dA12gsGNi2PgmM5HZedz-4" value="" style="shape=link;html=1;startArrow=classic;startFill=1;" edge="1" parent="1">
          <mxGeometry width="100" relative="1" as="geometry">
            <mxPoint x="847" y="430" as="sourcePoint" />
            <mxPoint x="1370" y="430" as="targetPoint" />
          </mxGeometry>
        </mxCell>
        <mxCell id="dA12gsGNi2PgmM5HZedz-5" value="IÂ²C Bus" style="edgeLabel;html=1;align=center;verticalAlign=middle;resizable=0;points=[];fontSize=18;" vertex="1" connectable="0" parent="dA12gsGNi2PgmM5HZedz-4">
          <mxGeometry x="-0.0548" y="3" relative="1" as="geometry">
            <mxPoint as="offset" />
          </mxGeometry>
        </mxCell>
        <mxCell id="dA12gsGNi2PgmM5HZedz-14" value="3V3 DC" style="edgeStyle=orthogonalEdgeStyle;rounded=0;orthogonalLoop=1;jettySize=auto;html=1;exitX=0.5;exitY=0;exitDx=0;exitDy=0;entryX=0.5;entryY=1;entryDx=0;entryDy=0;fontSize=18;startArrow=none;startFill=0;" edge="1" parent="1" source="dA12gsGNi2PgmM5HZedz-10" target="3a17f1ce550125da-2">
          <mxGeometry relative="1" as="geometry" />
        </mxCell>
        <mxCell id="dA12gsGNi2PgmM5HZedz-15" style="edgeStyle=orthogonalEdgeStyle;rounded=0;orthogonalLoop=1;jettySize=auto;html=1;exitX=0.25;exitY=0;exitDx=0;exitDy=0;entryX=0.75;entryY=1;entryDx=0;entryDy=0;fontSize=18;startArrow=none;startFill=0;" edge="1" parent="1" source="dA12gsGNi2PgmM5HZedz-10" target="3a17f1ce550125da-8">
          <mxGeometry relative="1" as="geometry">
            <Array as="points">
              <mxPoint x="830" y="760" />
              <mxPoint x="630" y="760" />
              <mxPoint x="630" y="720" />
              <mxPoint x="490" y="720" />
            </Array>
          </mxGeometry>
        </mxCell>
        <mxCell id="dA12gsGNi2PgmM5HZedz-16" value="3V3 DC" style="edgeLabel;html=1;align=center;verticalAlign=middle;resizable=0;points=[];fontSize=18;" vertex="1" connectable="0" parent="dA12gsGNi2PgmM5HZedz-15">
          <mxGeometry x="-0.5545" relative="1" as="geometry">
            <mxPoint as="offset" />
          </mxGeometry>
        </mxCell>
        <mxCell id="dA12gsGNi2PgmM5HZedz-10" value="Powersupply with PSU" style="whiteSpace=wrap;html=1;shadow=1;fontSize=18;fillColor=#f5f5f5;strokeColor=#666666;" vertex="1" parent="1">
          <mxGeometry x="788.5" y="800" width="167" height="80" as="geometry" />
        </mxCell>
        <mxCell id="dA12gsGNi2PgmM5HZedz-13" value="5-48 VDC" style="edgeStyle=orthogonalEdgeStyle;rounded=0;orthogonalLoop=1;jettySize=auto;html=1;exitX=1;exitY=0.5;exitDx=0;exitDy=0;entryX=0;entryY=0.5;entryDx=0;entryDy=0;fontSize=18;startArrow=none;startFill=0;" edge="1" parent="1" source="dA12gsGNi2PgmM5HZedz-12" target="dA12gsGNi2PgmM5HZedz-10">
          <mxGeometry relative="1" as="geometry" />
        </mxCell>
        <mxCell id="dA12gsGNi2PgmM5HZedz-12" value="External power 5-48 VDC" style="whiteSpace=wrap;html=1;shadow=1;fontSize=18;fillColor=#f5f5f5;strokeColor=#666666;" vertex="1" parent="1">
          <mxGeometry x="390" y="750" width="130" height="180" as="geometry" />
        </mxCell>
        <mxCell id="dA12gsGNi2PgmM5HZedz-18" value="? VDC" style="edgeStyle=orthogonalEdgeStyle;rounded=0;orthogonalLoop=1;jettySize=auto;html=1;exitX=0;exitY=0.5;exitDx=0;exitDy=0;entryX=1;entryY=0.5;entryDx=0;entryDy=0;fontSize=18;startArrow=classic;startFill=1;" edge="1" parent="1" source="dA12gsGNi2PgmM5HZedz-17" target="dA12gsGNi2PgmM5HZedz-10">
          <mxGeometry relative="1" as="geometry" />
        </mxCell>
        <mxCell id="dA12gsGNi2PgmM5HZedz-20" value="Low power mode" style="edgeStyle=orthogonalEdgeStyle;rounded=0;orthogonalLoop=1;jettySize=auto;html=1;exitX=0.5;exitY=0;exitDx=0;exitDy=0;entryX=0.75;entryY=1;entryDx=0;entryDy=0;fontSize=18;startArrow=none;startFill=0;" edge="1" parent="1" source="dA12gsGNi2PgmM5HZedz-17" target="3a17f1ce550125da-2">
          <mxGeometry relative="1" as="geometry" />
        </mxCell>
        <mxCell id="dA12gsGNi2PgmM5HZedz-17" value="Backup battery" style="whiteSpace=wrap;html=1;shadow=1;fontSize=18;fillColor=#f5f5f5;strokeColor=#666666;" vertex="1" parent="1">
          <mxGeometry x="1080" y="800" width="167" height="80" as="geometry" />
        </mxCell>
        <mxCell id="dA12gsGNi2PgmM5HZedz-22" value="Virtual COM" style="edgeStyle=orthogonalEdgeStyle;rounded=0;orthogonalLoop=1;jettySize=auto;html=1;exitX=0;exitY=0.5;exitDx=0;exitDy=0;entryX=1;entryY=0.75;entryDx=0;entryDy=0;fontSize=18;startArrow=classic;startFill=1;" edge="1" parent="1" source="dA12gsGNi2PgmM5HZedz-21" target="3a17f1ce550125da-2">
          <mxGeometry relative="1" as="geometry" />
        </mxCell>
        <mxCell id="dA12gsGNi2PgmM5HZedz-21" value="USB OTG" style="whiteSpace=wrap;html=1;shadow=1;fontSize=18;fillColor=#f5f5f5;strokeColor=#666666;" vertex="1" parent="1">
          <mxGeometry x="1160" y="640" width="120" height="60" as="geometry" />
        </mxCell>
        <mxCell id="dA12gsGNi2PgmM5HZedz-24" value="TCP/IP" style="edgeStyle=orthogonalEdgeStyle;rounded=0;orthogonalLoop=1;jettySize=auto;html=1;exitX=0;exitY=0.5;exitDx=0;exitDy=0;entryX=1.006;entryY=0.446;entryDx=0;entryDy=0;entryPerimeter=0;fontSize=18;startArrow=classic;startFill=1;" edge="1" parent="1" source="dA12gsGNi2PgmM5HZedz-23" target="3a17f1ce550125da-2">
          <mxGeometry relative="1" as="geometry" />
        </mxCell>
        <mxCell id="dA12gsGNi2PgmM5HZedz-23" value="Ethernet?" style="whiteSpace=wrap;html=1;shadow=1;fontSize=18;fillColor=#f5f5f5;strokeColor=#666666;" vertex="1" parent="1">
          <mxGeometry x="1160" y="550" width="120" height="60" as="geometry" />
        </mxCell>
      </root>
    </mxGraphModel>
  </diagram>
</mxfile>
